<?xml version="1.0" encoding="UTF-8" standalone="no"?>
<svg
   width="1024"
   height="1024"
   viewBox="0 0 1024 1024"
   version="1.1"
   id="svg33"
   sodipodi:docname="a-simple-happy-sphere-with-glasses-and-an-open-mou.svg"
   inkscape:version="1.4.2 (f4327f4, 2025-05-13)"
   xmlns:inkscape="http://www.inkscape.org/namespaces/inkscape"
   xmlns:sodipodi="http://sodipodi.sourceforge.net/DTD/sodipodi-0.dtd"
   xmlns="http://www.w3.org/2000/svg"
   xmlns:svg="http://www.w3.org/2000/svg">
  <defs
     id="defs33" />
  <sodipodi:namedview
     id="namedview33"
     pagecolor="#ffffff"
     bordercolor="#000000"
     borderopacity="0.25"
     inkscape:showpageshadow="2"
     inkscape:pageopacity="0.0"
     inkscape:pagecheckerboard="0"
     inkscape:deskcolor="#d1d1d1"
     inkscape:zoom="0.77636719"
     inkscape:cx="300.11572"
     inkscape:cy="470.78239"
     inkscape:window-width="1920"
     inkscape:window-height="991"
     inkscape:window-x="-9"
     inkscape:window-y="-9"
     inkscape:window-maximized="1"
     inkscape:current-layer="svg33" />
  <path
     fill="#345376"
     transform="scale(2 2)"
     d="M262.378 441.734C159.826 445.298 73.7649 365.129 70.0596 262.582C66.3543 160.035 146.405 73.8638 248.946 70.0173C351.688 66.1632 438.064 146.404 441.777 249.151C445.489 351.898 365.129 438.163 262.378 441.734ZM284.322 81.1658C267.943 78.2606 232.934 77.173 216.826 83.8276C213.39 83.65 199.637 87.5361 196.458 89.1408C164.736 100.285 134.576 121.405 114.392 148.389C112.872 150.422 104.977 159.464 105.974 161.674C107.587 161.472 110.965 158.289 112.783 157.337C119.31 153.919 151.193 152.475 159.213 152.281C162.48 152.27 165.747 152.243 169.014 152.281C179.735 152.141 190.579 153.001 201.2 154.433C212.314 155.932 213.507 156.184 218.607 165.882C224.823 164.585 232.19 164.079 238.37 165.882C241.602 154.763 247.045 155.341 257.246 153.957C279.894 150.883 317.972 150.278 340.644 156.672C343.439 157.641 345.965 158.83 348.561 160.234C349.521 161.515 350.482 162.77 351.544 163.968C353.944 163.753 359.653 162.466 361.451 164.034C367.526 169.329 356.482 171.337 353.291 171.587C353.276 172.449 353.229 173.32 353.291 174.18C352.393 175.652 353.415 180.293 353.492 182.144C353.748 188.242 351.841 197.185 352.438 202.144L352.327 202.547C349.44 213.205 349.891 222.613 338.677 229.201C325.071 237.194 280.32 236.68 265.309 232.667C243.615 226.867 245.86 203.5 240.032 187.723C233.27 185.183 223.567 184.96 216.826 187.723C212.633 201.341 210.91 223.254 197.088 230.604C186.034 236.481 154.6 235.856 139.762 235.344C137.977 234.802 135.909 234.783 134.058 234.635C112.103 231.837 106.721 217.321 104.139 197.214C103.64 195.387 103.675 193.024 103.481 191.113C103.122 185.765 102.933 179.429 104.139 174.18C102.632 173.252 101.147 172.254 99.5009 171.587C94.9033 180.547 90.5338 189.34 87.5377 198.994C86.3777 202.159 84.9686 205.543 84.3333 208.853C76.6001 230.713 75.8225 273.526 83.0851 296.961C83.6237 299.962 84.4467 303.693 85.6355 306.496C92.1053 329.654 106.23 354.336 122.799 371.813C133.29 389.44 173.121 414.608 191.472 420.876C194.468 422.687 207.16 427.304 210.452 426.9C225.388 434.204 274.343 434.181 288.58 429.95C293.751 429.901 300.138 427.764 305.043 426.1C358.766 413.486 408.611 361.93 424.85 310.51C425.91 307.324 426.808 304.119 427.54 300.842C434.233 283.256 433.078 261.957 433.413 243.297C433.095 240.567 432.801 237.282 432.103 234.635C429.39 199.416 406.702 150.428 378.516 127.313C357.604 107.946 331.653 92.302 303.78 85.3867C301.518 84.1803 286.625 80.6871 284.322 81.1658ZM281.425 159.738C276.062 160.122 249.954 161.402 247.347 164.577C244.582 167.943 247.073 181.013 247.831 185.354C256.481 234.88 263.536 226.586 310.188 227.825C318.674 226.765 333.409 226.411 338.885 219.279C345.638 210.485 347.026 184.519 345.423 173.365C344.157 164.553 338.863 163.95 331.18 162.695C314.357 159.947 298.367 159.721 281.425 159.738ZM153.033 160.234C147.17 160.622 118.269 161.56 114.515 165.825C107.315 174.003 111.868 214.154 121.386 222.036C130.39 229.492 157.103 227.841 169.014 227.825C182.878 226.436 195.338 228.669 201.446 213.697C204.318 206.655 215.561 169.531 208.099 164.164C202.116 159.861 163.031 160.231 153.033 160.234ZM226.376 172.603C223.635 172.828 221.214 173.305 218.607 174.18L217.625 178.26C222.318 178.55 227.012 178.1 231.713 178.26C234.18 178.478 236.612 178.748 239.061 179.123C238.323 171.453 234.241 172.146 226.376 172.603Z"
     id="path1" />
  <path
     fill="#EBF2FA"
     transform="scale(2 2)"
     d="M216.826 83.8276C232.934 77.173 267.943 78.2606 284.322 81.1658C314.497 97.8359 330.747 122.395 340.408 155.833L340.644 156.672C317.972 150.278 279.894 150.883 257.246 153.957C247.045 155.341 241.602 154.763 238.37 165.882C232.19 164.079 224.823 164.585 218.607 165.882C213.507 156.184 212.314 155.932 201.2 154.433C190.579 153.001 179.735 152.141 169.014 152.281C167.713 151.996 166.328 151.924 165.004 151.779C174.09 125.421 190.101 95.8159 216.826 83.8276Z"
     id="path2" />
  <path
     fill="#54A0C5"
     transform="scale(2 2)"
     d="M284.322 81.1658C286.625 80.6871 301.518 84.1803 303.78 85.3867C304.178 86.7136 308.248 89.7185 309.484 90.8299C328.999 108.387 341.53 135.523 348.561 160.234C345.965 158.83 343.439 157.641 340.644 156.672L340.408 155.833C330.747 122.395 314.497 97.8359 284.322 81.1658Z"
     id="path3" />
  <path
     fill="#54A0C5"
     transform="scale(2 2)"
     d="M196.458 89.1408C199.637 87.5361 213.39 83.65 216.826 83.8276C190.101 95.8159 174.09 125.421 165.004 151.779C166.328 151.924 167.713 151.996 169.014 152.281C165.747 152.243 162.48 152.27 159.213 152.281C160.016 139.177 175.257 113.475 183.157 103.733C187.286 98.6413 192.19 94.3715 196.545 89.5126L196.458 89.1408Z"
     id="path4" />
  <path
     fill="#EBF2FA"
     transform="scale(2 2)"
     d="M348.561 160.234C341.53 135.523 328.999 108.387 309.484 90.8299C308.248 89.7185 304.178 86.7136 303.78 85.3867C331.653 92.302 357.604 107.946 378.516 127.313C378.65 130.07 381.797 132.749 383.362 134.866C398.614 155.492 406.911 179.578 410.779 204.851C411.418 209.03 412.508 214.045 412.213 218.254C398.369 209.659 375.377 199.693 359.287 197.214C356.514 189.851 355.635 181.738 353.291 174.18C353.229 173.32 353.276 172.449 353.291 171.587C356.482 171.337 367.526 169.329 361.451 164.034C359.653 162.466 353.944 163.753 351.544 163.968C350.482 162.77 349.521 161.515 348.561 160.234Z"
     id="path5" />
  <path
     fill="#EBF2FA"
     transform="scale(2 2)"
     d="M159.213 152.281C151.193 152.475 119.31 153.919 112.783 157.337C110.965 158.289 107.587 161.472 105.974 161.674C104.977 159.464 112.872 150.422 114.392 148.389C134.576 121.405 164.736 100.285 196.458 89.1408L196.545 89.5126C192.19 94.3715 187.286 98.6413 183.157 103.733C175.257 113.475 160.016 139.177 159.213 152.281Z"
     id="path6" />
  <path
     fill="#AAC9D6"
     transform="scale(2 2)"
     d="M378.516 127.313C406.702 150.428 429.39 199.416 432.103 234.635C424.621 226.256 420.372 224.616 412.561 218.528L412.213 218.254C412.508 214.045 411.418 209.03 410.779 204.851C406.911 179.578 398.614 155.492 383.362 134.866C381.797 132.749 378.65 130.07 378.516 127.313Z"
     id="path7" />
  <path
     fill="white"
     transform="scale(2 2)"
     d="M310.188 227.825C263.536 226.586 256.481 234.88 247.831 185.354C247.073 181.013 244.582 167.943 247.347 164.577C249.954 161.402 276.062 160.122 281.425 159.738C298.367 159.721 314.357 159.947 331.18 162.695C338.863 163.95 344.157 164.553 345.423 173.365C347.026 184.519 345.638 210.485 338.885 219.279C333.409 226.411 318.674 226.765 310.188 227.825ZM293.233 183.322C272.34 185.182 273.69 213.642 279.881 206.06C281.207 204.437 280 184.473 298.245 187.723L298.59 187.774C312.498 189.922 309.509 206.342 312.229 206.915C320.222 208.6 312.539 178.694 293.233 183.322Z"
     id="path8" />
  <path
     fill="white"
     transform="scale(2 2)"
     d="M169.014 227.825C157.103 227.841 130.39 229.492 121.386 222.036C111.868 214.154 107.315 174.003 114.515 165.825C118.269 161.56 147.17 160.622 153.033 160.234C163.031 160.231 202.116 159.861 208.099 164.164C215.561 169.531 204.318 206.655 201.446 213.697C195.338 228.669 182.878 226.436 169.014 227.825ZM165.004 183.322C159.381 184.175 154.808 186.423 151.391 191.101C149.163 194.15 144.95 203.041 148.14 206.483C155.424 210.045 147.748 185.376 169.612 187.723C186.342 192.664 180 210.69 185.639 206.551C190.637 202.884 182.002 180.71 165.004 183.322Z"
     id="path9" />
  <path
     fill="#EBF2FA"
     transform="scale(2 2)"
     d="M103.481 191.113C98.9967 191.933 90.7725 198.656 87.5377 198.994C90.5338 189.34 94.9033 180.547 99.5009 171.587C101.147 172.254 102.632 173.252 104.139 174.18C102.933 179.429 103.122 185.765 103.481 191.113Z"
     id="path10" />
  <path
     fill="#EBF2FA"
     transform="scale(2 2)"
     d="M218.607 174.18C221.214 173.305 223.635 172.828 226.376 172.603C234.241 172.146 238.323 171.453 239.061 179.123C236.612 178.748 234.18 178.478 231.713 178.26C227.012 178.1 222.318 178.55 217.625 178.26L218.607 174.18Z"
     id="path11" />
  <path
     fill="#54A0C5"
     transform="scale(2 2)"
     d="M353.291 174.18C355.635 181.738 356.514 189.851 359.287 197.214C375.377 199.693 398.369 209.659 412.213 218.254L412.561 218.528C420.372 224.616 424.621 226.256 432.103 234.635C432.801 237.282 433.095 240.567 433.413 243.297C426.174 239.068 421.753 230.603 412.992 226.461C402.788 217.463 371.883 205.809 359.287 203.463C364.88 249.096 363.189 293.94 352.438 338.726C365.41 333.867 376.749 331.067 389.813 324.856C398.696 321.44 409.823 314.412 417.271 308.808C420.713 306.218 423.889 303.132 427.54 300.842C426.808 304.119 425.91 307.324 424.85 310.51C422.569 311.873 420.616 313.701 418.548 315.352C411.115 321.287 402.964 325.38 394.421 329.466C391.524 330.851 384.981 333.133 382.936 335.096C378.489 335.963 354.188 344.19 349.918 346.165C347.492 356.331 343.084 365.928 339.584 375.723L339.367 376.1C331.022 390.8 327.688 401.982 314.922 415.822C312.899 418.015 305.815 424.117 305.043 426.1C300.138 427.764 293.751 429.901 288.58 429.95C304.093 416.677 319.239 406.402 327.251 385.389C334.004 376.448 339.455 358.369 342.811 347.84C328.881 350.474 315.176 353.52 301.089 355.417C255.355 361.578 207.123 358.994 162.817 345.585C159.613 344.615 156.286 343.213 153.033 342.519C158.274 356.623 173.731 394.935 185.025 404.798C190.037 411.977 202.968 422.186 210.452 426.9C207.16 427.304 194.468 422.687 191.472 420.876C191.244 419.823 180.762 409.308 179.176 407.465C177.457 405.468 176.089 403.068 174.276 401.189C164.712 385.751 156.23 369.655 150.219 352.487C148.83 348.517 147.605 344.449 145.95 340.582C140.485 337.278 131.985 334.461 125.906 331.614C111.408 324.824 98.1076 316.512 85.6355 306.496C84.4467 303.693 83.6237 299.962 83.0851 296.961C88.0761 299.718 92.4733 304.496 97.2341 307.823C109.818 316.617 129.546 327.547 143.876 332.554C136.382 298.916 131.304 269.909 134.058 234.635C135.909 234.783 137.977 234.802 139.762 235.344C140.06 240.5 139.775 245.767 139.764 250.939C139.703 280.811 143.977 306.458 150.976 335.096C155.646 336.43 160.225 338.17 164.877 339.589C207.343 352.543 253.534 355.025 297.43 349.84C311.847 348.137 331.621 345.082 344.913 340.582C353.68 320.463 355.965 275.856 356.003 254.626C356.012 249.321 354.87 205.779 352.438 202.144C351.841 197.185 353.748 188.242 353.492 182.144C353.415 180.293 352.393 175.652 353.291 174.18Z"
     id="path12" />
  <path
     fill="#4F3737"
     transform="scale(2 2)"
     d="M298.245 187.723C280 184.473 281.207 204.437 279.881 206.06C273.69 213.642 272.34 185.182 293.233 183.322C312.539 178.694 320.222 208.6 312.229 206.915C309.509 206.342 312.498 189.922 298.59 187.774L298.245 187.723Z"
     id="path13"
     style="fill:#000000;fill-opacity:1" />
  <path
     fill="#4F3737"
     transform="scale(2 2)"
     d="M169.612 187.723C147.748 185.376 155.424 210.045 148.14 206.483C144.95 203.041 149.163 194.15 151.391 191.101C154.808 186.423 159.381 184.175 165.004 183.322C182.002 180.71 190.637 202.884 185.639 206.551C180 210.69 186.342 192.664 169.612 187.723Z"
     id="path14"
     style="fill:#000000;fill-opacity:1" />
  <path
     fill="#EBF2FA"
     transform="scale(2 2)"
     d="M352.438 202.144C354.87 205.779 356.012 249.321 356.003 254.626C355.965 275.856 353.68 320.463 344.913 340.582C331.621 345.082 311.847 348.137 297.43 349.84C253.534 355.025 207.343 352.543 164.877 339.589C160.225 338.17 155.646 336.43 150.976 335.096C143.977 306.458 139.703 280.811 139.764 250.939C139.775 245.767 140.06 240.5 139.762 235.344C154.6 235.856 186.034 236.481 197.088 230.604C210.91 223.254 212.633 201.341 216.826 187.723C223.567 184.96 233.27 185.183 240.032 187.723C245.86 203.5 243.615 226.867 265.309 232.667C280.32 236.68 325.071 237.194 338.677 229.201C349.891 222.613 349.44 213.205 352.327 202.547L352.438 202.144ZM314.99 239.781C311.224 240.816 307.597 242.618 303.946 244.019C266.25 258.489 215.48 262.897 176.54 254.154C166.298 251.854 157.557 247.468 150.514 260.049C140.521 277.897 170.457 309.838 183.019 319.452C226.584 350.293 291.545 343.754 323.18 299.193C331.328 287.717 339.788 269.338 337.248 255.121C335.301 244.221 325.406 238.928 314.99 239.781Z"
     id="path15" />
  <path
     fill="#54A0C5"
     transform="scale(2 2)"
     d="M87.5377 198.994C90.7725 198.656 98.9967 191.933 103.481 191.113C103.675 193.024 103.64 195.387 104.139 197.214C100.563 197.553 88.7988 206.952 84.3333 208.853C84.9686 205.543 86.3777 202.159 87.5377 198.994Z"
     id="path16" />
  <path
     fill="#EBF2FA"
     transform="scale(2 2)"
     d="M84.3333 208.853C88.7988 206.952 100.563 197.553 104.139 197.214C106.721 217.321 112.103 231.837 134.058 234.635C131.304 269.909 136.382 298.916 143.876 332.554C129.546 327.547 109.818 316.617 97.2341 307.823C92.4733 304.496 88.0761 299.718 83.0851 296.961C75.8225 273.526 76.6001 230.713 84.3333 208.853Z"
     id="path17" />
  <path
     fill="#EBF2FA"
     d="M359.287 203.463C371.883 205.809 402.788 217.463 412.992 226.461L412.972 226.707C412.535 232.595 413.06 238.667 412.792 244.6C411.853 265.425 406.669 286.285 398.406 305.413C396.377 310.109 390.188 320.503 389.813 324.856C376.749 331.067 365.41 333.867 352.438 338.726C363.189 293.94 364.88 249.096 359.287 203.463Z"
     id="path18"
     transform="scale(2 2)" />
  <path
     fill="#AAC9D6"
     transform="scale(2 2)"
     d="M412.992 226.461C421.753 230.603 426.174 239.068 433.413 243.297C433.078 261.957 434.233 283.256 427.54 300.842C423.889 303.132 420.713 306.218 417.271 308.808C409.823 314.412 398.696 321.44 389.813 324.856C390.188 320.503 396.377 310.109 398.406 305.413C406.669 286.285 411.853 265.425 412.792 244.6C413.06 238.667 412.535 232.595 412.972 226.707L412.992 226.461Z"
     id="path19" />
  <path
     fill="#4F3737"
     transform="scale(2 2)"
     d="M183.019 319.452C170.457 309.838 140.521 277.897 150.514 260.049C157.557 247.468 166.298 251.854 176.54 254.154C215.48 262.897 266.25 258.489 303.946 244.019C307.597 242.618 311.224 240.816 314.99 239.781C325.406 238.928 335.301 244.221 337.248 255.121C339.788 269.338 331.328 287.717 323.18 299.193C291.545 343.754 226.584 350.293 183.019 319.452ZM316.447 244.562C318.041 251.483 321.137 260.401 323.139 267.568C324.879 266.395 326.555 265.126 328.055 263.653C337.132 253.278 327.738 244.479 316.447 244.562ZM311.105 246.492C300.193 251.297 288.797 254.576 277.293 257.636C277.923 259.741 283.575 283.494 283.616 283.526L284.322 283.403C297.481 279.679 306.308 275.972 318.444 270.675C317.841 267.647 312.668 247.554 311.105 246.492ZM163.734 256.568C152.585 258.423 151.487 270.113 157.055 278.435C164.431 281.495 172.324 283.614 180.082 285.451C182.603 285.984 185.13 286.584 187.679 286.964C187.61 279.421 188.494 269.218 187.679 262.173C185.208 261.154 166.104 256.646 163.734 256.568ZM271.652 258.327C259.914 260.639 248.03 261.528 236.308 263.653C236.181 272.402 237.976 281.434 237.789 290.476C239.563 290.396 241.331 290.439 243.107 290.476C248.119 289.281 274.208 285.264 278.302 285.451C277.712 281.593 273.617 260.542 272.015 258.395L271.652 258.327ZM192.795 262.173L192.795 288.006C206.093 289.685 219.054 290.529 232.465 290.476C232.82 281.843 231.847 272.251 230.892 263.653C217.511 263.678 205.65 262.514 192.795 262.173ZM331.126 268.486C320.15 277.039 307.309 282.127 294.08 286.116C255.402 297.781 211.245 299.885 172.025 288.957C168.125 287.87 164.277 286.406 160.355 285.451C165.75 295.735 173.652 305.565 183.019 312.485C188.323 317.168 195.009 321.024 201.414 324.015C223.246 297.377 263.293 297.056 284.322 324.856C305.91 311.964 323.942 297.672 330.59 271.499C330.824 270.578 331.155 269.435 331.126 268.486ZM238.37 309.601C226.031 310.657 213.241 316.173 205.996 326.546C222.574 330.104 229.618 333.62 248.61 333.262C259.108 332.091 269.663 330.573 279.52 326.546C269.371 314.599 253.897 308.416 238.37 309.601Z"
     id="path20"
     style="fill:#345376;fill-opacity:1;stroke:none" />
  <path
     fill="white"
     transform="scale(2 2)"
     d="M323.139 267.568C321.137 260.401 318.041 251.483 316.447 244.562C327.738 244.479 337.132 253.278 328.055 263.653C326.555 265.126 324.879 266.395 323.139 267.568Z"
     id="path21" />
  <path
     fill="white"
     transform="scale(2 2)"
     d="M277.293 257.636C288.797 254.576 300.193 251.297 311.105 246.492C312.668 247.554 317.841 267.647 318.444 270.675C306.308 275.972 297.481 279.679 284.322 283.403L283.616 283.526C283.575 283.494 277.923 259.741 277.293 257.636Z"
     id="path22" />
  <path
     fill="white"
     transform="scale(2 2)"
     d="M157.055 278.435C151.487 270.113 152.585 258.423 163.734 256.568C166.104 256.646 185.208 261.154 187.679 262.173C188.494 269.218 187.61 279.421 187.679 286.964C185.13 286.584 182.603 285.984 180.082 285.451C172.324 283.614 164.431 281.495 157.055 278.435Z"
     id="path23" />
  <path
     fill="white"
     transform="scale(2 2)"
     d="M236.308 263.653C248.03 261.528 259.914 260.639 271.652 258.327L272.015 258.395C273.617 260.542 277.712 281.593 278.302 285.451C274.208 285.264 248.119 289.281 243.107 290.476C241.331 290.439 239.563 290.396 237.789 290.476C237.976 281.434 236.181 272.402 236.308 263.653Z"
     id="path24" />
  <path
     fill="white"
     transform="scale(2 2)"
     d="M192.795 288.006L192.795 262.173C205.65 262.514 217.511 263.678 230.892 263.653C231.847 272.251 232.82 281.843 232.465 290.476C219.054 290.529 206.093 289.685 192.795 288.006Z"
     id="path25" />
  <path
     fill="#54A0C5"
     transform="scale(2 2)"
     d="M160.355 285.451C164.277 286.406 168.125 287.87 172.025 288.957C211.245 299.885 255.402 297.781 294.08 286.116C307.309 282.127 320.15 277.039 331.126 268.486C331.155 269.435 330.824 270.578 330.59 271.499C323.942 297.672 305.91 311.964 284.322 324.856C263.293 297.056 223.246 297.377 201.414 324.015C195.009 321.024 188.323 317.168 183.019 312.485C173.652 305.565 165.75 295.735 160.355 285.451Z"
     id="path26" />
  <path
     fill="#EBF2FA"
     transform="scale(2 2)"
     d="M85.6355 306.496C98.1076 316.512 111.408 324.824 125.906 331.614C131.985 334.461 140.485 337.278 145.95 340.582C147.605 344.449 148.83 348.517 150.219 352.487C156.23 369.655 164.712 385.751 174.276 401.189C165.483 400.609 140.415 385.566 133.49 380.334C130.619 378.165 125.823 372.841 122.799 371.813C106.23 354.336 92.1053 329.654 85.6355 306.496Z"
     id="path27" />
  <path
     fill="#AAC9D6"
     transform="scale(2 2)"
     d="M205.996 326.546C213.241 316.173 226.031 310.657 238.37 309.601C253.897 308.416 269.371 314.599 279.52 326.546C269.663 330.573 259.108 332.091 248.61 333.262C229.618 333.62 222.574 330.104 205.996 326.546Z"
     id="path28" />
  <path
     fill="#AAC9D6"
     transform="scale(2 2)"
     d="M382.936 335.096C384.981 333.133 391.524 330.851 394.421 329.466C402.964 325.38 411.115 321.287 418.548 315.352C420.616 313.701 422.569 311.873 424.85 310.51C408.611 361.93 358.766 413.486 305.043 426.1C305.815 424.117 312.899 418.015 314.922 415.822C327.688 401.982 331.022 390.8 339.367 376.1L339.584 375.723C348.918 372.482 373.049 348.323 379.514 340.133C380.498 338.886 382.655 336.6 382.936 335.096Z"
     id="path29" />
  <path
     fill="#EBF2FA"
     transform="scale(2 2)"
     d="M349.918 346.165C354.188 344.19 378.489 335.963 382.936 335.096C382.655 336.6 380.498 338.886 379.514 340.133C373.049 348.323 348.918 372.482 339.584 375.723C343.084 365.928 347.492 356.331 349.918 346.165Z"
     id="path30" />
  <path
     fill="#EBF2FA"
     transform="scale(2 2)"
     d="M327.251 385.389L326.949 385.498C322.915 386.984 318.991 389.072 315.079 390.867C283.425 405.39 248.059 411.196 213.394 408.29C203.88 407.492 194.507 405.72 185.025 404.798C173.731 394.935 158.274 356.623 153.033 342.519C156.286 343.213 159.613 344.615 162.817 345.585C207.123 358.994 255.355 361.578 301.089 355.417C315.176 353.52 328.881 350.474 342.811 347.84C339.455 358.369 334.004 376.448 327.251 385.389Z"
     id="path31" />
  <path
     fill="#AAC9D6"
     transform="scale(2 2)"
     d="M122.799 371.813C125.823 372.841 130.619 378.165 133.49 380.334C140.415 385.566 165.483 400.609 174.276 401.189C176.089 403.068 177.457 405.468 179.176 407.465C180.762 409.308 191.244 419.823 191.472 420.876C173.121 414.608 133.29 389.44 122.799 371.813Z"
     id="path32" />
  <path
     fill="#AAC9D6"
     transform="scale(2 2)"
     d="M185.025 404.798C194.507 405.72 203.88 407.492 213.394 408.29C248.059 411.196 283.425 405.39 315.079 390.867C318.991 389.072 322.915 386.984 326.949 385.498L327.251 385.389C319.239 406.402 304.093 416.677 288.58 429.95C274.343 434.181 225.388 434.204 210.452 426.9C202.968 422.186 190.037 411.977 185.025 404.798Z"
     id="path33" />
</svg>
